<svg xmlns="http://www.w3.org/2000/svg" viewBox="0 0 163.19 59.33"><defs><style>.cls-1{fill:#f6b80f;}.cls-2{fill:#fff;}</style></defs><g id="Layer_2" data-name="Layer 2"><g id="Layer_1-2" data-name="Layer 1"><path class="cls-1" d="M40.77.16V10L21.5,36.62l-2,.05L8.83,22.09,0,9.85V0H4.52L20.38,22.57v.16L36.24.16ZM8.83,25.55V45.13H0V13.36Zm23.1,0V45.13h8.84V13.36Z"/><path class="cls-1" d="M53.65,7.88V45.13H43V7.88Zm14.11,6a6.06,6.06,0,0,1-1.65,4.31A5.81,5.81,0,0,1,61.9,19.8a5.5,5.5,0,0,1-4.1-1.7,6,6,0,0,1-1.65-4.26A6,6,0,0,1,57.8,9.53a5.42,5.42,0,0,1,4.1-1.65,5.57,5.57,0,0,1,4.21,1.65A6,6,0,0,1,67.76,13.84Z"/><path class="cls-1" d="M72.71,42.37A3.15,3.15,0,0,1,75.9,39,3.11,3.11,0,0,1,79,42.37a3.17,3.17,0,1,1-6.33,0Z"/><path class="cls-1" d="M83.14,45.13V.11h20.07c.69,0,1.33,0,2,.05h0a10.78,10.78,0,0,1,2.61.32,11.57,11.57,0,0,1,8.35,7.61,11.8,11.8,0,0,1,.59,3.67,11.35,11.35,0,0,1-4.42,9.1c-.32.27-.43.32-.64.48a11.11,11.11,0,0,1-6.49,2.08h0c-2.93.21-6,.21-8,.21H95V18.25h7.77a6.71,6.71,0,0,0,4.36-1.33,4.57,4.57,0,0,0,1.6-3.72,4.28,4.28,0,0,0-1.6-3.57,6.47,6.47,0,0,0-4.36-1.22h-9.8V36.83h9.8a9.28,9.28,0,0,0,5.48-1.44,4.66,4.66,0,0,0,2-4,5.22,5.22,0,0,0-1.28-3.89,24.57,24.57,0,0,0-1.81-2.29,13.33,13.33,0,0,0,7.35-3.4,23.17,23.17,0,0,1,3.46,3.4,12.2,12.2,0,0,1,2.44,7.46,10.91,10.91,0,0,1-4.41,9.15c-3,2.23-7,3.35-12,3.35Z"/><path class="cls-1" d="M132.38.11V21l-.06.05V45.08h-9.79V.11Zm28.84,45H151L145,35.07l-3.46-5.85-4.09-7.29L153.83.11h9.36L147.55,21.45Z"/><path class="cls-2" d="M87.89,52.81a2,2,0,0,0-.79-.92,2.19,2.19,0,0,0-1.23-.34,2.33,2.33,0,0,0-1.2.31,2.11,2.11,0,0,0-.83.87,2.68,2.68,0,0,0-.31,1.32,2.75,2.75,0,0,0,.31,1.33,2.2,2.2,0,0,0,.83.88,2.43,2.43,0,0,0,1.2.3A2.29,2.29,0,0,0,87,56.29a2,2,0,0,0,.81-.76,2.62,2.62,0,0,0,.34-1.17H85.63v-.49h3.15v.44a3,3,0,0,1-.43,1.42,2.85,2.85,0,0,1-1,1,3.09,3.09,0,0,1-2.95,0,2.85,2.85,0,0,1-1.07-1.08,3.19,3.19,0,0,1-.39-1.58,3.15,3.15,0,0,1,.39-1.57,2.8,2.8,0,0,1,1.07-1.09,3.13,3.13,0,0,1,3.18.09,2.77,2.77,0,0,1,1,1.33Z"/><path class="cls-2" d="M91.42,52.53a1.92,1.92,0,0,1,1-.24v.63h-.17a1.47,1.47,0,0,0-1,.35,1.5,1.5,0,0,0-.39,1.17V57h-.6V52.38h.6v.83A1.47,1.47,0,0,1,91.42,52.53Z"/><path class="cls-2" d="M93.68,53.44a2.07,2.07,0,0,1,.79-.84,2.31,2.31,0,0,1,1.15-.29,2.06,2.06,0,0,1,1.15.31,1.73,1.73,0,0,1,.69.78v-1h.6V57h-.6V56a1.83,1.83,0,0,1-.7.79,2.06,2.06,0,0,1-1.15.31,2.21,2.21,0,0,1-1.14-.3,2.07,2.07,0,0,1-.79-.84,2.62,2.62,0,0,1-.29-1.27A2.55,2.55,0,0,1,93.68,53.44Zm3.55.28a1.59,1.59,0,0,0-.62-.66,1.78,1.78,0,0,0-.88-.23,1.75,1.75,0,0,0-.89.22,1.62,1.62,0,0,0-.62.65,2.08,2.08,0,0,0-.22,1,2.18,2.18,0,0,0,.22,1,1.62,1.62,0,0,0,.62.65,1.82,1.82,0,0,0,1.77,0,1.59,1.59,0,0,0,.62-.66,2.25,2.25,0,0,0,0-2Z"/><path class="cls-2" d="M101.07,52.62a2.08,2.08,0,0,1,1.15-.31,2.25,2.25,0,0,1,1.14.29,2.09,2.09,0,0,1,.8.84,2.66,2.66,0,0,1,.28,1.26,2.73,2.73,0,0,1-.28,1.27,2.09,2.09,0,0,1-.8.84,2.16,2.16,0,0,1-1.14.3,2,2,0,0,1-1.14-.31,1.89,1.89,0,0,1-.71-.78v3.23h-.59V52.38h.59v1A1.93,1.93,0,0,1,101.07,52.62Zm2.54,1.08a1.62,1.62,0,0,0-.62-.65,1.75,1.75,0,0,0-.89-.22,1.71,1.71,0,0,0-.87.23,1.55,1.55,0,0,0-.63.66,2.25,2.25,0,0,0,0,2,1.55,1.55,0,0,0,.63.66,1.71,1.71,0,0,0,.87.23,1.76,1.76,0,0,0,.89-.23,1.62,1.62,0,0,0,.62-.65,2.18,2.18,0,0,0,.23-1A2.08,2.08,0,0,0,103.61,53.7Z"/><path class="cls-2" d="M109.07,52.51a1.63,1.63,0,0,1,.67.68,2.41,2.41,0,0,1,.24,1.12V57h-.59V54.38a1.62,1.62,0,0,0-.38-1.17,1.39,1.39,0,0,0-1-.4,1.4,1.4,0,0,0-1.07.43,1.77,1.77,0,0,0-.4,1.26V57h-.6V50.72h.6v2.45a1.51,1.51,0,0,1,.65-.65,2.07,2.07,0,0,1,1-.23A2.11,2.11,0,0,1,109.07,52.51Z"/><path class="cls-2" d="M111.65,51.37a.42.42,0,0,1-.13-.32.4.4,0,0,1,.13-.31.43.43,0,0,1,.31-.12.42.42,0,0,1,.3.12.4.4,0,0,1,.13.31.42.42,0,0,1-.13.32.39.39,0,0,1-.3.13A.4.4,0,0,1,111.65,51.37Zm.6,1V57h-.59V52.38Z"/><path class="cls-2" d="M114,53.44a2.09,2.09,0,0,1,.8-.84,2.39,2.39,0,0,1,1.17-.29,2.27,2.27,0,0,1,1.43.43,1.93,1.93,0,0,1,.72,1.16h-.64a1.28,1.28,0,0,0-.52-.79,1.64,1.64,0,0,0-1-.29,1.6,1.6,0,0,0-.84.22,1.52,1.52,0,0,0-.6.63,2.68,2.68,0,0,0,0,2.08,1.49,1.49,0,0,0,.6.64,1.6,1.6,0,0,0,.84.22,1.64,1.64,0,0,0,1-.29,1.3,1.3,0,0,0,.52-.8h.64a2,2,0,0,1-.73,1.16,2.24,2.24,0,0,1-1.42.43,2.39,2.39,0,0,1-1.17-.29A2.09,2.09,0,0,1,114,56a2.93,2.93,0,0,1,0-2.54Z"/><path class="cls-2" d="M125.71,51.43a2.52,2.52,0,0,1,1.09,1,3.27,3.27,0,0,1,.37,1.61,3.2,3.2,0,0,1-.37,1.59,2.52,2.52,0,0,1-1.09,1A3.85,3.85,0,0,1,124,57h-1.77v-6H124A3.71,3.71,0,0,1,125.71,51.43Zm.2,4.46a2.43,2.43,0,0,0,.66-1.82,2.48,2.48,0,0,0-.66-1.84,2.55,2.55,0,0,0-1.9-.66h-1.17v5H124A2.55,2.55,0,0,0,125.91,55.89Z"/><path class="cls-2" d="M132.83,54.94H129a1.86,1.86,0,0,0,.25.91,1.49,1.49,0,0,0,.61.56,1.74,1.74,0,0,0,.82.2,1.65,1.65,0,0,0,1-.29,1.28,1.28,0,0,0,.52-.76h.64a2,2,0,0,1-.73,1.12,2.25,2.25,0,0,1-1.41.43,2.43,2.43,0,0,1-1.18-.29,2,2,0,0,1-.81-.84,2.59,2.59,0,0,1-.3-1.27,2.7,2.7,0,0,1,.29-1.27,2.05,2.05,0,0,1,.81-.84,2.47,2.47,0,0,1,1.19-.29,2.33,2.33,0,0,1,1.17.29,2,2,0,0,1,.77.78,2.22,2.22,0,0,1,.26,1.09C132.84,54.68,132.84,54.83,132.83,54.94Zm-.8-1.37a1.44,1.44,0,0,0-.59-.56,1.8,1.8,0,0,0-.82-.19,1.6,1.6,0,0,0-1.14.43,1.7,1.7,0,0,0-.52,1.2h3.28A1.74,1.74,0,0,0,132,53.57Z"/><path class="cls-2" d="M134.58,56.74a1.39,1.39,0,0,1-.56-1h.61a.87.87,0,0,0,.37.63,1.42,1.42,0,0,0,.89.25,1.17,1.17,0,0,0,.76-.23.72.72,0,0,0,.28-.58.53.53,0,0,0-.15-.39,1.28,1.28,0,0,0-.39-.24,4.69,4.69,0,0,0-.64-.19,8.47,8.47,0,0,1-.85-.28,1.45,1.45,0,0,1-.55-.4,1.1,1.1,0,0,1-.22-.73,1.14,1.14,0,0,1,.2-.63,1.42,1.42,0,0,1,.58-.46,2.13,2.13,0,0,1,.86-.17,1.86,1.86,0,0,1,1.21.38,1.39,1.39,0,0,1,.5,1.05h-.6a1,1,0,0,0-.32-.67,1.26,1.26,0,0,0-.81-.25A1.12,1.12,0,0,0,135,53a.63.63,0,0,0-.29.53.6.6,0,0,0,.17.44,1.2,1.2,0,0,0,.41.28,7,7,0,0,0,.67.21,6.64,6.64,0,0,1,.8.27,1.49,1.49,0,0,1,.52.38,1,1,0,0,1,.22.65,1.11,1.11,0,0,1-.21.67,1.27,1.27,0,0,1-.57.47,2,2,0,0,1-.84.17A2.17,2.17,0,0,1,134.58,56.74Z"/><path class="cls-2" d="M139,51.37a.42.42,0,0,1-.13-.32.4.4,0,0,1,.13-.31.43.43,0,0,1,.31-.12.41.41,0,0,1,.3.12.4.4,0,0,1,.13.31.42.42,0,0,1-.13.32.38.38,0,0,1-.3.13A.4.4,0,0,1,139,51.37Zm.6,1V57H139V52.38Z"/><path class="cls-2" d="M144.41,52.62a1.84,1.84,0,0,1,.7.77v-1h.59v4.78a2.34,2.34,0,0,1-.27,1.14,2,2,0,0,1-.78.76,2.29,2.29,0,0,1-1.12.27,2.49,2.49,0,0,1-1.5-.43,1.78,1.78,0,0,1-.73-1.16h.58a1.44,1.44,0,0,0,.59.78,1.89,1.89,0,0,0,1.06.29,1.67,1.67,0,0,0,.81-.19,1.4,1.4,0,0,0,.56-.57,1.8,1.8,0,0,0,.21-.89V56a1.92,1.92,0,0,1-.71.79,2,2,0,0,1-1.14.31,2.22,2.22,0,0,1-1.15-.3,2.07,2.07,0,0,1-.79-.84A2.73,2.73,0,0,1,141,54.7a2.66,2.66,0,0,1,.29-1.26,2.07,2.07,0,0,1,.79-.84,2.31,2.31,0,0,1,1.15-.29A2.08,2.08,0,0,1,144.41,52.62Zm.47,1.1a1.67,1.67,0,0,0-.63-.66,1.85,1.85,0,0,0-1.77,0,1.62,1.62,0,0,0-.62.65,2.08,2.08,0,0,0-.22,1,2.18,2.18,0,0,0,.22,1,1.62,1.62,0,0,0,.62.65,1.82,1.82,0,0,0,1.77,0,1.67,1.67,0,0,0,.63-.66,2.25,2.25,0,0,0,0-2Z"/><path class="cls-2" d="M151,52.81a2,2,0,0,1,.53,1.5V57h-.59V54.38a1.66,1.66,0,0,0-.38-1.17,1.4,1.4,0,0,0-1-.4,1.44,1.44,0,0,0-1.08.43,1.77,1.77,0,0,0-.4,1.26V57h-.6V52.38h.6v.79a1.54,1.54,0,0,1,.64-.65,2,2,0,0,1,1-.23A1.87,1.87,0,0,1,151,52.81Z"/><path class="cls-2" d="M157.38,54.94h-3.87a2,2,0,0,0,.26.91,1.38,1.38,0,0,0,.61.56,1.74,1.74,0,0,0,.82.2,1.62,1.62,0,0,0,1-.29,1.3,1.3,0,0,0,.53-.76h.63a2,2,0,0,1-.73,1.12,2.2,2.2,0,0,1-1.4.43,2.4,2.4,0,0,1-1.18-.29,2.14,2.14,0,0,1-.82-.84,2.93,2.93,0,0,1,0-2.54,1.94,1.94,0,0,1,.81-.84,2.44,2.44,0,0,1,1.19-.29,2.29,2.29,0,0,1,1.16.29,1.93,1.93,0,0,1,.77.78,2.23,2.23,0,0,1,.27,1.09C157.4,54.68,157.39,54.83,157.38,54.94Zm-.8-1.37A1.39,1.39,0,0,0,156,53a1.74,1.74,0,0,0-.82-.19,1.64,1.64,0,0,0-1.14.43,1.74,1.74,0,0,0-.52,1.2h3.28A1.56,1.56,0,0,0,156.58,53.57Z"/><path class="cls-2" d="M160.05,52.53a1.91,1.91,0,0,1,1-.24v.63h-.16a1.32,1.32,0,0,0-1.44,1.52V57h-.6V52.38h.6v.83A1.44,1.44,0,0,1,160.05,52.53Z"/></g></g></svg>